<svg xmlns="http://www.w3.org/2000/svg" aria-hidden="true" style="position:absolute;width:0;height:0;overflow:hidden">
  <defs>
    <symbol id="list_point" viewBox="0 0 32 32">
      <path fill="#4c4c4c" stroke="#eceded" stroke-width="4" d="M30 16c0 7.732-6.268 14-14 14S2 23.732 2 16 8.268 2 16 2s14 6.268 14 14z" style="fill:var(--color1, #4c4c4c);stroke:var(--color2, #eceded)"/>
    </symbol>
    <symbol id="scroll_down" viewBox="0 0 32 32">
      <path fill="#fd9222" d="M16.947 17.867a1.334 1.334 0 0 1-1.894 0l-6.107-6.12a1.334 1.334 0 1 0-1.894 1.88l6.12 6.12a4.001 4.001 0 0 0 5.654 0l6.12-6.12a1.337 1.337 0 0 0-.434-2.172 1.331 1.331 0 0 0-1.46.292l-6.107 6.12z" style="fill:var(--color3, #fd9222)"/>
    </symbol>
    <symbol id="mastercard" viewBox="0 0 32 32">
      <path fill="#fafafa" d="M4 6h24a3.5 3.5 0 0 1 3.5 3.5v13A3.5 3.5 0 0 1 28 26H4a3.5 3.5 0 0 1-3.5-3.5v-13A3.5 3.5 0 0 1 4 6z" style="fill:var(--color4, #fafafa)"/>
      <path fill="#ed0006" d="M16 20.784a6.756 6.756 0 0 1-4.317 1.539c-3.675 0-6.655-2.885-6.655-6.443s2.979-6.443 6.655-6.443c1.647 0 3.155.579 4.317 1.539a6.756 6.756 0 0 1 4.317-1.539c3.675 0 6.655 2.885 6.655 6.443s-2.979 6.443-6.655 6.443A6.76 6.76 0 0 1 16 20.784z" style="fill:var(--color5, #ed0006)"/>
      <path fill="#f9a000" d="M16 20.784c1.431-1.182 2.338-2.94 2.338-4.904s-.907-3.722-2.338-4.904a6.756 6.756 0 0 1 4.317-1.539c3.675 0 6.655 2.885 6.655 6.443s-2.979 6.443-6.655 6.443A6.76 6.76 0 0 1 16 20.784z" style="fill:var(--color6, #f9a000)"/>
      <path fill="#ff5e00" d="M16 20.784c1.431-1.182 2.338-2.94 2.338-4.904s-.907-3.722-2.338-4.904c-1.431 1.182-2.338 2.94-2.338 4.904s.907 3.722 2.338 4.904z" style="fill:var(--color7, #ff5e00)"/>
      <path fill="none" stroke="#fafafa" d="M4 6h24a3.5 3.5 0 0 1 3.5 3.5v13A3.5 3.5 0 0 1 28 26H4a3.5 3.5 0 0 1-3.5-3.5v-13A3.5 3.5 0 0 1 4 6z" style="stroke:var(--color4, #fafafa)"/>
    </symbol>
    <symbol id="flag" viewBox="0 0 32 32">
      <path fill="gold" d="M31.199 5.496H.873v22.568h30.326V5.496z" style="fill:var(--color8, #ffd700)"/>
      <path fill="#0057b7" d="M.873 5.496h30.326V16.78H.873V5.496z" style="fill:var(--color9, #0057b7)"/>
    </symbol>
    <symbol id="cross_black" viewBox="0 0 32 32">
      <path stroke-linecap="round" stroke-linejoin="round" stroke-width="2.667" d="M24 8 8 24M8 8l16 16"/>
    </symbol>
    <symbol id="advantages_spoon" viewBox="0 0 32 32">
      <path fill="#fd9222" d="M15.717 15.022a2.66 2.66 0 0 1-.607-1.694c0-2.232 2.674-4.46 5.348-4.46a2.675 2.675 0 0 1 2.674 2.675c0 2.675-2.228 5.349-4.462 5.349a2.662 2.662 0 0 1-1.694-.607l-6.585 6.586a.893.893 0 0 1-1.262-1.262l6.588-6.586z" style="fill:var(--color3, #fd9222)"/>
      <path fill="none" stroke="#fff" stroke-width=".516" d="M16 .258C24.694.258 31.742 7.306 31.742 16S24.694 31.742 16 31.742.258 24.694.258 16 7.306.258 16 .258z" style="stroke:var(--color10, #fff)"/>
    </symbol>
    <symbol id="advantages_choco" viewBox="0 0 32 32">
      <path d="m14.876 8.987 3.885 3.89.041-.041a.442.442 0 0 1 .611-.007l.451.451a.438.438 0 0 1 .043.565l-.002.004-.074.099 3.179 3.179a.72.72 0 0 1 0 1.022l-4.867 4.867a.72.72 0 0 1-1.022 0l-2.295-2.295c-.038.048-.086.087-.14.116s-.114.045-.175.048a.444.444 0 0 1-.333-.127l-1.342-1.342a.442.442 0 0 1-.007-.611l.003-.004.04-.039-3.885-3.885a.72.72 0 0 1 0-1.022l4.867-4.867a.72.72 0 0 1 1.022 0v.001zm3.397 4.377-.906-.906a.301.301 0 0 0-.338-.069.29.29 0 0 0-.1.069l-1.848 1.848c-.029.029-.053.064-.068.102s-.024.079-.024.12a.31.31 0 0 0 .092.222l.903.903.315-.315-.808-.808 1.657-1.662.81.812.316-.316zm-2.62 2.618-.905-.905a.301.301 0 0 0-.338-.069.29.29 0 0 0-.1.069l-1.853 1.853a.306.306 0 0 0 0 .439l.904.904.318-.318-.81-.807 1.662-1.657.807.807.316-.315zm-3.358-4.011 1.848 1.848c.124.124.32.124.439-.005l1.848-1.848a.296.296 0 0 0 .093-.217h.005a.318.318 0 0 0-.093-.222l-1.848-1.848a.31.31 0 0 0-.444 0l-1.848 1.853a.306.306 0 0 0 0 .439zm-2.617 2.616 1.848 1.848c.124.124.32.124.439 0l1.848-1.848a.293.293 0 0 0 .093-.222h.005a.308.308 0 0 0-.093-.222l-1.848-1.848a.301.301 0 0 0-.338-.069.29.29 0 0 0-.1.069l-1.853 1.853a.306.306 0 0 0 0 .439zm3.579 4.519 1.219 1.22 4.973-6.73-.338-.338-5.854 5.849z" style="fill:var(--color11, #000)"/>
      <path fill="#fd9222" d="m14.876 8.987 3.885 3.89.041-.041a.442.442 0 0 1 .611-.007l.451.451a.438.438 0 0 1 .043.565l-.002.004-.074.099 3.179 3.179a.72.72 0 0 1 0 1.022l-4.867 4.867a.72.72 0 0 1-1.022 0l-2.295-2.295c-.038.048-.086.087-.14.116s-.114.045-.175.048a.444.444 0 0 1-.333-.127l-1.342-1.342a.442.442 0 0 1-.007-.611l.003-.004.04-.039-3.885-3.885a.72.72 0 0 1 0-1.022l4.867-4.867a.72.72 0 0 1 1.022 0v.001zm3.397 4.377-.906-.906a.301.301 0 0 0-.338-.069.29.29 0 0 0-.1.069l-1.848 1.848c-.029.029-.053.064-.068.102s-.024.079-.024.12a.31.31 0 0 0 .092.222l.903.903.315-.315-.808-.808 1.657-1.662.81.812.316-.316zm-2.62 2.618-.905-.905a.301.301 0 0 0-.338-.069.29.29 0 0 0-.1.069l-1.853 1.853a.306.306 0 0 0 0 .439l.904.904.318-.318-.81-.807 1.662-1.657.807.807.316-.315zm-3.358-4.011 1.848 1.848c.124.124.32.124.439-.005l1.848-1.848a.296.296 0 0 0 .093-.217h.005a.318.318 0 0 0-.093-.222l-1.848-1.848a.31.31 0 0 0-.444 0l-1.848 1.853a.306.306 0 0 0 0 .439zm-2.617 2.616 1.848 1.848c.124.124.32.124.439 0l1.848-1.848a.293.293 0 0 0 .093-.222h.005a.308.308 0 0 0-.093-.222l-1.848-1.848a.301.301 0 0 0-.338-.069.29.29 0 0 0-.1.069l-1.853 1.853a.306.306 0 0 0 0 .439zm3.579 4.519 1.219 1.22 4.973-6.73-.338-.338-5.854 5.849z" style="fill:var(--color3, #fd9222)"/>
      <path fill="none" stroke="#fff" stroke-width=".516" d="M16 .258C24.694.258 31.742 7.306 31.742 16S24.694 31.742 16 31.742.258 24.694.258 16 7.306.258 16 .258z" style="stroke:var(--color10, #fff)"/>
    </symbol>
    <symbol id="advantages_coin" viewBox="0 0 32 32">
      <path fill="#fd9222" d="M16 9.118c-3.785 0-6.882 3.097-6.882 6.882s3.097 6.882 6.882 6.882c3.785 0 6.882-3.097 6.882-6.882S19.785 9.118 16 9.118zm0 12.387c-3.028 0-5.505-2.477-5.505-5.505s2.477-5.505 5.505-5.505 5.505 2.477 5.505 5.505-2.477 5.505-5.505 5.505z" style="fill:var(--color3, #fd9222)"/>
      <path fill="#fd9222" d="M16.895 15.312h-1.789c-.344 0-.619-.275-.619-.619s.275-.619.619-.619h2.546c.413 0 .688-.275.688-.688s-.275-.688-.688-.688h-.963v-.619c0-.413-.275-.688-.688-.688s-.688.275-.688.688v.619h-.206c-1.101 0-1.996.895-1.996 1.996s.895 1.996 1.996 1.996h1.72c.344 0 .619.275.619.619s-.275.619-.619.619h-2.546c-.413 0-.688.275-.688.688s.275.688.688.688h1.032v.619c0 .413.275.688.688.688s.688-.275.688-.688v-.619h.206c1.101 0 1.996-.895 1.996-1.996s-.895-1.996-1.996-1.996z" style="fill:var(--color3, #fd9222)"/>
      <path fill="none" stroke="#fff" stroke-width=".516" d="M16 .258C24.694.258 31.742 7.306 31.742 16S24.694 31.742 16 31.742.258 24.694.258 16 7.306.258 16 .258z" style="stroke:var(--color10, #fff)"/>
    </symbol>
    <symbol id="burger" viewBox="0 0 32 32">
      <path stroke-linecap="round" stroke-linejoin="round" stroke-width="2.286" d="M4 16h24M4 8h24M4 24h24"/>
    </symbol>
    <symbol id="chocolate" viewBox="0 0 32 32">
      <path fill="#e2e2e2" d="M.727 0h30.545v32H.727V0z" style="fill:var(--color12, #e2e2e2)"/>
      <path fill="#fafafa" d="M-243.636-33.455h545.455v10530.909h-545.455V-33.455z" style="fill:var(--color4, #fafafa)"/>
      <path fill="#fcf1e0" d="M4.492 19.89 14.779 3.258l.611-.643 7.862 5.242.054 3.163 1.919 3.13-8.476 13.437-12.256-7.696z" style="fill:var(--color13, #fcf1e0)"/>
      <path fill="none" stroke="#fd9222" stroke-linecap="round" stroke-linejoin="round" stroke-width="2.618" d="M21.378 23.521 7.837 15.06m3.735-6.125 13.541 8.461m-14.239 8.02L22.076 7.041m4.592 7.803c-2.902-1.813-4.041-3.23-2.174-6.293l-9.188-5.742L4.104 21.184l13.541 8.461 9.024-14.802z" style="stroke:var(--color3, #fd9222)"/>
    </symbol>
    <symbol id="twitter" viewBox="0 0 32 32">
      <path d="M30.667 4c-1.277 0.901-2.69 1.589-4.187 2.040-0.803-0.923-1.87-1.578-3.057-1.875s-2.437-0.222-3.58 0.214c-1.143 0.436-2.125 1.213-2.812 2.226s-1.047 2.212-1.031 3.435v1.333c-2.343 0.061-4.665-0.459-6.759-1.513s-3.894-3.143-5.241-5.061c0 0-5.333 12.533 6.667 17.867-2.746 1.864-6.017 2.799-9.333 2.667 12 6.667 26.667 0 26.667-15.333-0.001-0.371-0.037-0.742-0.107-1.107 1.361-1.342 2.321-3.036 2.773-4.893z"></path>
    </symbol>
    <symbol id="instagram" viewBox="0 0 32 32">
      <path d="M22.667 2.667h-13.333c-3.682 0-6.667 2.985-6.667 6.667v13.333c0 3.682 2.985 6.667 6.667 6.667h13.333c3.682 0 6.667-2.985 6.667-6.667v-13.333c0-3.682-2.985-6.667-6.667-6.667z"></path>
      <path d="M21.333 15.16c0.165 1.11-0.025 2.243-0.542 3.239s-1.334 1.803-2.336 2.308c-1.002 0.504-2.138 0.68-3.245 0.502s-2.131-0.701-2.924-1.494-1.316-1.816-1.494-2.924c-0.178-1.107-0.003-2.243 0.502-3.245s1.312-1.82 2.308-2.336c0.996-0.517 2.129-0.706 3.239-0.542 1.132 0.168 2.18 0.695 2.989 1.504s1.337 1.857 1.504 2.989z"></path>
      <path d="M23.333 8.667h0.015"></path>
    </symbol>
    <symbol id="cross_white" viewBox="0 0 32 32">
      <path fill="none" stroke="#fff" style="stroke: var(--color1, #fff)" stroke-linejoin="round" stroke-linecap="round" stroke-miterlimit="4" stroke-width="4.5714" d="M29.334 2.667l-26.667 26.667M2.667 2.667l26.667 26.667"></path>
    </symbol>
  </defs>
</svg>
