<svg xmlns="http://www.w3.org/2000/svg" aria-hidden="true" style="position:absolute;width:0;height:0;overflow:hidden">
  <defs>
    <symbol id="icon-close" viewBox="0 0 32 32">
      <path
        d="M32 3.223l-3.223-3.223-12.777 12.777-12.777-12.777-3.223 3.223 12.777 12.777-12.777 12.777 3.223 3.223 12.777-12.777 12.777 12.777 3.223-3.223-12.777-12.777 12.777-12.777z">
      </path>
    </symbol>
    <symbol id="card" viewBox="0 0 32 21">
      <path fill-rule="evenodd" clip-rule="evenodd"
        d="M16 15.284C14.8379 16.2437 13.3305 16.8231 11.6834 16.8231C8.00802 16.8231 5.02856 13.9385 5.02856 10.3803C5.02856 6.82203 8.00802 3.9375 11.6834 3.9375C13.3305 3.9375 14.8379 4.51687 16 5.47659C17.1621 4.51687 18.6695 3.9375 20.3166 3.9375C23.992 3.9375 26.9714 6.82203 26.9714 10.3803C26.9714 13.9385 23.992 16.8231 20.3166 16.8231C18.6695 16.8231 17.1621 16.2437 16 15.284Z"
        fill="#ED0006" />
      <path fill-rule="evenodd" clip-rule="evenodd"
        d="M16 15.284C17.4309 14.1023 18.3382 12.3438 18.3382 10.3803C18.3382 8.41672 17.4309 6.65832 16 5.47659C17.1621 4.51687 18.6695 3.9375 20.3166 3.9375C23.992 3.9375 26.9714 6.82203 26.9714 10.3803C26.9714 13.9385 23.992 16.8231 20.3166 16.8231C18.6695 16.8231 17.1621 16.2437 16 15.284Z"
        fill="#F9A000" />
      <path fill-rule="evenodd" clip-rule="evenodd"
        d="M16 15.2839C17.4309 14.1022 18.3382 12.3438 18.3382 10.3802C18.3382 8.41668 17.4309 6.65829 16 5.47656C14.5692 6.65829 13.6619 8.41668 13.6619 10.3802C13.6619 12.3438 14.5692 14.1022 16 15.2839Z"
        fill="#FF5E00" />
    </symbol>

    <symbol id="flag" viewBox="0 0 24 18" >
<path d="M23.874 0.293945H0.182129V17.9251H23.874V0.293945Z" fill="#FFD700"/>
<path fill-rule="evenodd" clip-rule="evenodd" d="M0.182129 0.293945H23.874V9.10951H0.182129V0.293945Z" fill="#0057B7"/>
</symbol>


  </defs>
</svg>